<?xml version="1.0" standalone="no"?>
<!DOCTYPE svg PUBLIC "-//W3C//DTD SVG 20010904//EN"
 "http://www.w3.org/TR/2001/REC-SVG-20010904/DTD/svg10.dtd">
<svg version="1.0" xmlns="http://www.w3.org/2000/svg"
 width="512.000000pt" height="512.000000pt" viewBox="0 0 512.000000 512.000000"
 preserveAspectRatio="xMidYMid meet">
<metadata>
Created by potrace 1.11, written by Peter Selinger 2001-2013
</metadata>
<g transform="translate(0.000000,512.000000) scale(0.100000,-0.100000)"
fill="#000000" stroke="none">
<path d="M0 2560 l0 -2560 2560 0 2560 0 0 2560 0 2560 -2560 0 -2560 0 0
-2560z m3021 1395 c46 -9 120 -28 164 -42 81 -26 249 -105 259 -121 3 -5 -17
-75 -45 -155 l-51 -146 -80 40 c-406 204 -788 151 -1009 -140 -65 -86 -142
-243 -173 -351 -47 -166 -60 -271 -60 -485 -1 -419 88 -697 284 -896 84 -85
149 -125 265 -165 75 -26 91 -28 250 -28 222 -1 268 10 542 130 7 4 27 -44 57
-135 25 -77 46 -144 46 -149 0 -13 -163 -87 -255 -115 -144 -45 -279 -60 -475
-54 -217 6 -316 29 -475 110 -186 93 -334 248 -441 460 -200 396 -230 1030
-70 1487 82 233 234 447 408 576 131 96 317 171 483 193 90 12 269 5 376 -14z"/>
</g>
</svg>
